# Blender v3.6.2 OBJ File: ''
# www.blender.org
mtllib arrowUp.mtl
o Cylinder
v 0.000000 -1.700000 -0.000000
v -0.000000 -0.000000 0.034231
v -0.029645 0.000000 -0.017116
v 0.029645 0.000000 -0.017115
v 0.000000 -1.400000 0.034231
v -0.029645 -1.400000 -0.017116
v 0.029645 -1.400000 -0.017116
v -0.085971 -1.400000 -0.049636
v 0.085971 -1.400000 -0.049635
v 0.000000 -1.400000 0.099271
vt 0.248001 0.656788
vt 0.896023 0.034998
vt 0.916432 0.056026
vt 0.206751 0.746616
vt 0.937257 0.076869
vt 0.239165 0.791500
vt 0.944895 0.048413
vt 0.964497 0.103804
vt 0.328488 0.747018
vt 0.242651 0.845410
vt 0.358586 0.743274
vt 0.151816 0.746433
vt 0.250783 0.623918
vt 0.022194 0.956561
vt 0.022604 0.709669
vt 0.268214 0.977296
vn -0.8660 -0.0000 0.5000
vn 0.0000 0.0000 -1.0000
vn -0.0000 1.0000 0.0000
vn 0.8660 0.0000 0.5000
vn -0.8544 -0.1632 0.4933
vn 0.0000 -0.1632 -0.9866
vn 0.8544 -0.1632 0.4933
usemtl None
s off
f 5/1/1 2/2/1 3/3/1 6/4/1
f 6/4/2 3/3/2 4/5/2 7/6/2
f 3/3/3 2/7/3 4/5/3
f 7/6/4 4/5/4 2/8/4 5/9/4
f 9/10/3 7/6/3 5/9/3 10/11/3
f 8/12/3 6/4/3 7/6/3 9/10/3
f 10/13/3 5/1/3 6/4/3 8/12/3
f 1/14/5 10/15/5 8/12/5
f 1/14/6 8/12/6 9/10/6
f 1/14/7 9/10/7 10/16/7
